<svg width="610" height="454" viewBox="0 0 610 454" fill="none" xmlns="http://www.w3.org/2000/svg">
<rect width="392.073" height="212.611" rx="12" transform="matrix(0.872496 0.488621 -0.707107 0.707107 150.339 59.3967)" fill="url(#paint0_linear_6708_105)"/>
<path d="M149.572 87.4497C149.858 87.6757 150.048 87.9513 150.141 88.2765C150.242 88.6065 150.241 88.9447 150.138 89.291C150.043 89.6421 149.848 89.9648 149.554 90.259C149.183 90.6303 148.73 90.9012 148.195 91.0717C147.668 91.2352 147.092 91.2787 146.467 91.2021C145.858 91.1234 145.251 90.9146 144.646 90.5757L141.275 88.6879L148.599 81.3642L151.84 83.1794C152.454 83.5231 152.893 83.9 153.157 84.3101C153.428 84.7133 153.531 85.1154 153.467 85.5167C153.403 85.9179 153.196 86.2936 152.846 86.6439C152.411 87.0782 151.904 87.3566 151.322 87.4793C150.757 87.5997 150.174 87.5899 149.572 87.4497ZM146.616 85.1877L148.6 86.2986C149.153 86.6084 149.686 86.7429 150.198 86.7022C150.711 86.6614 151.153 86.4554 151.524 86.0842C151.895 85.7129 152.035 85.3375 151.943 84.9579C151.85 84.5784 151.519 84.2288 150.948 83.9093L148.991 82.813L146.616 85.1877ZM145.33 89.7296C145.918 90.0587 146.488 90.2032 147.041 90.163C147.593 90.1228 148.069 89.903 148.469 89.5037C148.875 89.0974 149.021 88.6819 148.906 88.2571C148.799 87.8253 148.455 87.4473 147.876 87.1229L145.828 85.9757L143.243 88.5606L145.33 89.7296ZM151.686 89.9939C152.274 89.4055 152.936 88.9729 153.671 88.6962C154.413 88.4124 155.162 88.2908 155.917 88.3312C156.681 88.3764 157.378 88.5758 158.009 88.9291C158.631 89.2776 159.063 89.6887 159.304 90.1625C159.545 90.6362 159.613 91.1006 159.509 91.5556L160.559 90.5049L161.752 91.1729L155.994 96.931L154.801 96.263L155.873 95.1913C155.304 95.3968 154.673 95.481 153.982 95.4437C153.307 95.4043 152.663 95.2128 152.049 94.8691C151.418 94.5158 150.974 94.0702 150.716 93.5324C150.458 92.9946 150.41 92.4158 150.571 91.7959C150.733 91.176 151.104 90.5753 151.686 89.9939ZM157.691 93.3735C158.125 92.9391 158.395 92.5004 158.502 92.0571C158.608 91.6139 158.559 91.2041 158.356 90.8279C158.168 90.4494 157.853 90.1368 157.412 89.8899C156.972 89.643 156.486 89.502 155.954 89.4668C155.423 89.4316 154.889 89.5147 154.35 89.7159C153.812 89.9171 153.326 90.2349 152.891 90.6692C152.45 91.1105 152.173 91.5563 152.06 92.0065C151.954 92.4498 151.994 92.8606 152.182 93.239C152.377 93.6105 152.695 93.9196 153.136 94.1665C153.577 94.4133 154.063 94.5544 154.594 94.5895C155.141 94.6226 155.683 94.5385 156.221 94.3373C156.767 94.129 157.257 93.8078 157.691 93.3735ZM166.943 90.9328L159.168 98.7083L157.988 98.0476L165.764 90.272L166.943 90.9328ZM163.638 96.6875C164.226 96.0991 164.888 95.6665 165.623 95.3898C166.366 95.106 167.114 94.9844 167.869 95.0248C168.633 95.07 169.33 95.2694 169.961 95.6227C170.584 95.9712 171.015 96.3824 171.256 96.8561C171.497 97.3298 171.566 97.7942 171.461 98.2493L172.512 97.1985L173.705 97.8665L167.946 103.625L166.754 102.957L167.825 101.885C167.256 102.09 166.626 102.175 165.935 102.137C165.259 102.098 164.615 101.906 164.001 101.563C163.37 101.209 162.926 100.764 162.668 100.226C162.41 99.6882 162.362 99.1094 162.524 98.4895C162.685 97.8696 163.056 97.2689 163.638 96.6875ZM169.643 100.067C170.078 99.6327 170.348 99.194 170.454 98.7507C170.56 98.3075 170.511 97.8977 170.308 97.5215C170.12 97.143 169.806 96.8304 169.365 96.5835C168.924 96.3366 168.438 96.1956 167.907 96.1604C167.376 96.1252 166.841 96.2083 166.303 96.4095C165.764 96.6107 165.278 96.9285 164.844 97.3628C164.402 97.8041 164.125 98.2499 164.012 98.7001C163.906 99.1434 163.947 99.5542 164.135 99.9326C164.329 100.304 164.647 100.613 165.088 100.86C165.529 101.107 166.015 101.248 166.546 101.283C167.093 101.316 167.635 101.232 168.174 101.031C168.719 100.823 169.209 100.501 169.643 100.067ZM179.265 100.817C180.13 101.301 180.616 101.906 180.725 102.634C180.84 103.354 180.499 104.114 179.7 104.912L176.306 108.306L175.139 107.653L178.397 104.395C178.971 103.821 179.232 103.284 179.179 102.784C179.132 102.278 178.802 101.852 178.189 101.509C177.566 101.16 176.912 101.04 176.225 101.147C175.547 101.259 174.906 101.616 174.304 102.218L171.12 105.402L169.94 104.741L175.698 98.9831L176.878 99.6438L176.059 100.463C176.586 100.3 177.129 100.249 177.688 100.31C178.255 100.377 178.781 100.546 179.265 100.817ZM180.682 106.249C181.278 105.654 181.943 105.218 182.678 104.941C183.42 104.657 184.173 104.538 184.937 104.583C185.71 104.633 186.433 104.847 187.107 105.225C187.98 105.714 188.526 106.287 188.744 106.945C188.972 107.608 188.871 108.294 188.443 109.006L187.173 108.294C187.402 107.876 187.441 107.466 187.29 107.065C187.147 106.668 186.817 106.324 186.298 106.034C185.624 105.656 184.89 105.54 184.097 105.686C183.311 105.825 182.574 106.238 181.888 106.924C181.194 107.618 180.866 108.27 180.903 108.881C180.939 109.491 181.295 109.985 181.969 110.363C182.487 110.653 183.018 110.797 183.56 110.795C184.101 110.792 184.619 110.645 185.113 110.353L186.384 111.065C185.605 111.547 184.752 111.807 183.824 111.845C182.904 111.875 182.015 111.651 181.16 111.172C180.486 110.794 180.007 110.335 179.725 109.795C179.452 109.259 179.392 108.685 179.547 108.072C179.701 107.459 180.08 106.852 180.682 106.249ZM195.691 114.327C195.509 114.509 195.303 114.694 195.074 114.883L189.396 111.703C188.871 112.294 188.664 112.872 188.774 113.436C188.9 113.998 189.274 114.454 189.896 114.802C190.406 115.088 190.924 115.231 191.45 115.23C191.992 115.228 192.493 115.104 192.954 114.859L194.225 115.571C193.481 116.018 192.649 116.257 191.728 116.287C190.814 116.311 189.934 116.086 189.087 115.611C188.413 115.234 187.93 114.772 187.64 114.227C187.358 113.687 187.289 113.108 187.435 112.49C187.588 111.865 187.962 111.255 188.558 110.66C189.153 110.064 189.822 109.625 190.564 109.341C191.306 109.057 192.06 108.944 192.825 109.001C193.606 109.056 194.343 109.277 195.034 109.664C195.708 110.042 196.186 110.495 196.466 111.023C196.747 111.552 196.815 112.104 196.671 112.679C196.543 113.252 196.216 113.801 195.691 114.327ZM194.672 113.445C195.036 113.08 195.249 112.713 195.309 112.342C195.376 111.965 195.304 111.613 195.091 111.286C194.894 110.957 194.588 110.677 194.173 110.444C193.577 110.11 192.913 109.979 192.181 110.05C191.458 110.126 190.793 110.42 190.186 110.932L194.672 113.445Z" fill="white"/>
<path d="M121.28 122.215L123.213 120.281C127.821 122.469 131.512 121.65 133.487 119.675C135.547 117.616 135.117 115.375 132.147 112.925L128.509 109.969C126.817 108.465 126.335 107.572 127.554 106.353C128.815 105.092 130.69 105.159 133.853 106.93C137.458 108.949 137.867 110.522 136.144 112.245L135.87 112.519L138.645 114.072L138.771 113.946C141.251 111.467 141.296 108.509 137.608 105.886L139.563 103.932L136.97 102.479L135.036 104.413C130.22 102.109 126.519 103.019 124.627 104.911C122.316 107.222 123.297 109.477 125.807 111.538L129.492 114.487C131.36 116.058 131.779 117.014 130.561 118.233C129.237 119.557 127.481 119.492 124.162 117.633C120.351 115.498 119.972 113.975 121.654 112.294L121.99 111.958L119.189 110.389L119.063 110.515C116.394 113.184 116.755 116.14 120.641 118.808L118.686 120.762L121.28 122.215ZM143.1 131.484C147.845 134.142 152.195 134.283 154.864 131.614C156.818 129.659 156.449 127.682 154.291 125.916L154.459 125.748C156.983 126.703 159.285 126.222 160.882 124.624C163.278 122.229 162.087 119.496 157.652 117.013C152.259 113.992 147.71 114.658 144.957 117.411L144.768 117.6L147.724 119.255L147.871 119.108C149.721 117.259 151.723 117.036 155.276 119.026C158.647 120.914 159.032 122.146 157.666 123.512C156.405 124.773 154.686 124.793 152.585 123.617L148.125 121.119L146.234 123.011L151.083 125.726C153.261 126.946 153.803 128.266 152.374 129.695C150.713 131.355 148.744 131.301 145.14 129.283C141.302 127.133 141.23 125.749 143.08 123.9L143.374 123.605L140.418 121.95L140.082 122.286C137.224 125.144 137.655 128.435 143.1 131.484ZM165.983 143.971L168.841 141.113L171.823 142.783L173.862 140.745L170.88 139.075L180.063 129.891L176.822 128.076L156.544 131.768L154.968 133.344L166.067 139.56L163.208 142.418L165.983 143.971ZM160.87 133.47L161.039 133.301L174.433 130.869L174.641 130.985L168.105 137.521L160.87 133.47ZM168.904 149.279C170.512 150.18 172.076 150.072 173.379 148.769L177.057 145.091L173.53 143.116L170.273 146.374L171.829 147.245L171.387 147.686C170.946 148.128 170.654 148.096 170.214 147.849L169.358 147.369L167.971 148.756L168.904 149.279ZM182.983 153.82C187.729 156.477 192.078 156.618 194.747 153.949C196.701 151.995 196.332 150.018 194.174 148.252L194.342 148.084C196.866 149.039 199.168 148.557 200.765 146.96C203.161 144.564 201.97 141.832 197.536 139.349C192.142 136.328 187.593 136.993 184.84 139.746L184.651 139.936L187.607 141.591L187.754 141.444C189.604 139.595 191.606 139.372 195.159 141.361C198.53 143.249 198.915 144.482 197.549 145.848C196.289 147.108 194.569 147.129 192.469 145.953L188.009 143.455L186.117 145.346L190.966 148.062C193.144 149.282 193.686 150.601 192.257 152.03C190.597 153.69 188.628 153.637 185.023 151.618C181.186 149.469 181.114 148.085 182.963 146.235L183.257 145.941L180.301 144.286L179.965 144.622C177.107 147.48 177.538 150.77 182.983 153.82ZM198.637 162.291C204.206 156.722 209.669 155.061 218.351 154.186L220.18 152.358L205.814 144.313L203.776 146.351L215.159 152.726L214.991 152.894C209.211 153.132 202.009 153.984 195.473 160.519L198.637 162.291ZM214.585 171.518C219.434 174.233 223.869 174.652 226.601 171.92C228.535 169.986 228.135 167.959 225.879 166.008L226.047 165.84C228.779 166.91 231.257 166.495 232.876 164.877C235.082 162.67 234.012 159.776 229.085 157.017C224.158 154.258 220.146 154.306 217.94 156.513C216.321 158.131 216.514 160.042 218.605 161.672L218.437 161.84C215.429 160.844 212.614 161.07 210.68 163.003C207.948 165.735 209.684 168.773 214.585 171.518ZM222.886 163.217C219.541 161.343 218.87 159.951 220.236 158.585C221.539 157.282 223.337 157.142 226.942 159.161C230.572 161.194 230.9 162.525 229.597 163.828C228.231 165.194 226.257 165.104 222.886 163.217ZM216.728 169.374C212.943 167.254 212.288 165.805 213.927 164.166C215.461 162.632 217.571 162.666 221.331 164.772C225.091 166.877 225.729 168.383 224.195 169.917C222.556 171.556 220.488 171.48 216.728 169.374ZM222.74 179.429C224.348 180.329 225.912 180.221 227.215 178.919L230.893 175.241L227.366 173.266L224.109 176.523L225.664 177.395L225.223 177.836C224.782 178.277 224.49 178.245 224.05 177.998L223.194 177.519L221.807 178.906L222.74 179.429ZM242.812 186.998L245.67 184.14L248.652 185.81L250.69 183.771L247.708 182.101L256.892 172.918L253.651 171.102L233.373 174.794L231.797 176.37L242.895 182.586L240.037 185.444L242.812 186.998ZM237.699 176.496L237.867 176.328L251.262 173.895L251.47 174.012L244.934 180.547L237.699 176.496ZM260.715 197.024L263.573 194.166L266.555 195.836L268.594 193.797L265.612 192.127L274.795 182.944L271.554 181.129L251.276 184.821L249.7 186.397L260.799 192.612L257.941 195.47L260.715 197.024ZM255.602 186.522L255.771 186.354L269.165 183.922L269.373 184.038L262.837 190.574L255.602 186.522Z" fill="white"/>
<path d="M58.8714 182.175L57.6916 181.515L58.778 173.026L52.9463 178.857L51.7665 178.196L59.1007 170.862L60.2806 171.523L59.2047 180.002L65.0258 174.18L66.2057 174.841L58.8714 182.175ZM72.9418 181.072L67.1837 186.831L66.0039 186.17L66.855 185.319C66.3361 185.487 65.7894 185.542 65.215 185.482C64.6563 185.421 64.1349 185.254 63.6509 184.983C63.0977 184.673 62.6918 184.304 62.4331 183.875C62.1814 183.439 62.1116 182.963 62.2235 182.446C62.3441 181.935 62.6706 181.413 63.203 180.88L66.5759 177.507L67.7428 178.161L64.496 181.408C63.9286 181.975 63.6679 182.512 63.7141 183.019C63.7673 183.518 64.1007 183.94 64.7144 184.284C65.3454 184.637 66 184.758 66.6782 184.646C67.3565 184.534 67.9968 184.177 68.5992 183.574L71.762 180.412L72.9418 181.072ZM83.5831 186.868C84.1362 187.178 84.5344 187.548 84.7774 187.979C85.0274 188.403 85.0922 188.871 84.9715 189.383C84.8509 189.895 84.5245 190.417 83.9921 190.949L80.5981 194.343L79.4313 193.689L82.6886 190.432C83.263 189.858 83.5236 189.321 83.4705 188.821C83.433 188.319 83.116 187.901 82.5196 187.567C81.9059 187.224 81.2564 187.111 80.5712 187.23C79.8929 187.342 79.2526 187.699 78.6502 188.302L75.4769 191.475L74.31 190.821L77.5673 187.564C78.1418 186.99 78.4024 186.453 78.3492 185.953C78.3117 185.451 77.9947 185.033 77.3983 184.699C76.7847 184.356 76.1352 184.243 75.4499 184.362C74.7717 184.474 74.1313 184.831 73.5289 185.434L70.3556 188.607L69.1758 187.946L74.9339 182.188L76.1138 182.849L75.2837 183.679C75.8183 183.508 76.3606 183.451 76.9107 183.508C77.4694 183.57 77.9864 183.734 78.4618 184C79.0582 184.334 79.4769 184.738 79.7178 185.211C79.9588 185.685 79.9815 186.195 79.7859 186.741C80.391 186.446 81.0347 186.315 81.7169 186.347C82.3992 186.38 83.0212 186.553 83.5831 186.868ZM88.3997 191.401C88.985 191.193 89.6195 191.112 90.3034 191.156C90.9873 191.2 91.6275 191.389 92.2239 191.723C92.8635 192.082 93.3157 192.526 93.5805 193.057C93.8453 193.588 93.9005 194.159 93.746 194.772C93.5986 195.378 93.2306 195.975 92.6422 196.564C92.0608 197.145 91.3955 197.581 90.6463 197.872C89.8971 198.163 89.1371 198.289 88.3663 198.251C87.6042 198.217 86.9076 198.024 86.2766 197.671C85.6629 197.327 85.2313 196.916 84.9817 196.437C84.7408 195.964 84.6717 195.493 84.7746 195.026L83.7133 196.088L82.5335 195.427L90.3091 187.651L91.4889 188.312L88.3997 191.401ZM91.4365 195.889C91.8708 195.454 92.141 195.015 92.2471 194.572C92.3533 194.129 92.3046 193.719 92.101 193.343C91.9061 192.971 91.5883 192.662 91.1475 192.415C90.7153 192.173 90.2258 192.036 89.679 192.003C89.1479 191.968 88.6053 192.052 88.0513 192.255C87.513 192.456 87.0302 192.771 86.6029 193.198C86.1686 193.632 85.8949 194.075 85.7817 194.525C85.6842 194.973 85.7294 195.386 85.9173 195.765C86.1209 196.141 86.4387 196.45 86.8709 196.692C87.3117 196.939 87.7977 197.08 88.3288 197.115C88.8756 197.148 89.4182 197.064 89.9565 196.863C90.5018 196.655 90.9951 196.33 91.4365 195.889ZM100.877 200.864C100.695 201.046 100.49 201.232 100.261 201.42L94.5819 198.24C94.0577 198.832 93.8506 199.41 93.9605 199.974C94.0861 200.536 94.4601 200.991 95.0824 201.34C95.5924 201.625 96.1105 201.768 96.6367 201.768C97.1786 201.765 97.6798 201.642 98.1403 201.397L99.4109 202.108C98.6673 202.555 97.8352 202.794 96.9145 202.825C96.0008 202.849 95.1204 202.623 94.2733 202.149C93.5991 201.771 93.1167 201.31 92.826 200.765C92.5439 200.224 92.4757 199.645 92.6215 199.027C92.7743 198.403 93.1485 197.793 93.7439 197.197C94.3393 196.602 95.0081 196.162 95.7503 195.878C96.4925 195.595 97.2463 195.481 98.0118 195.538C98.7928 195.593 99.5291 195.814 100.221 196.202C100.895 196.579 101.372 197.032 101.653 197.561C101.933 198.09 102.001 198.641 101.858 199.217C101.73 199.79 101.403 200.339 100.877 200.864ZM99.8584 199.982C100.223 199.618 100.435 199.25 100.495 198.88C100.563 198.502 100.49 198.15 100.277 197.824C100.08 197.495 99.7745 197.214 99.3596 196.982C98.7632 196.648 98.0992 196.516 97.3674 196.587C96.6443 196.663 95.9793 196.957 95.3724 197.47L99.8584 199.982ZM105.338 200.674C105.875 200.461 106.424 200.37 106.987 200.401C107.558 200.436 108.12 200.609 108.673 200.919L107.685 201.907L107.374 201.732C106.052 200.992 104.809 201.203 103.646 202.366L100.515 205.497L99.3351 204.836L105.093 199.078L106.273 199.739L105.338 200.674Z" fill="white"/>
<path d="M40.3524 189.36C41.1116 188.702 41.9852 188.344 42.9732 188.286C43.9613 188.227 44.93 188.464 45.8794 188.995C46.5124 189.35 46.9627 189.749 47.2302 190.193C47.5145 190.635 47.6146 191.079 47.5305 191.526C47.4557 191.979 47.2184 192.405 46.8185 192.805C46.3508 193.272 45.7797 193.582 45.1051 193.734C44.4398 193.891 43.7929 193.87 43.1642 193.671L43.1077 193.727C43.592 194.187 43.8337 194.693 43.8329 195.246C43.832 195.798 43.545 196.361 42.9716 196.935C42.5416 197.365 42.0321 197.685 41.4431 197.897C40.8616 198.101 40.2307 198.165 39.5506 198.09C38.8704 198.016 38.1906 197.788 37.511 197.407C36.5244 196.855 35.922 196.194 35.7039 195.424C35.4934 194.647 35.7357 193.853 36.4307 193.042L37.6594 193.73C37.2719 194.219 37.1303 194.717 37.2346 195.222C37.3389 195.728 37.7168 196.163 38.3684 196.528C39.02 196.893 39.6491 197.034 40.2558 196.95C40.8793 196.863 41.4099 196.601 41.8474 196.164C42.4132 195.598 42.5879 195.06 42.3714 194.551C42.1549 194.041 41.5766 193.523 40.6365 192.997L40.3153 192.817L41.1753 191.957L41.5104 192.145C42.3744 192.617 43.1344 192.866 43.7907 192.892C44.4545 192.911 45.0203 192.686 45.488 192.218C45.8878 191.819 46.0455 191.407 45.9612 190.983C45.8861 190.564 45.5507 190.188 44.9549 189.854C44.3778 189.531 43.7917 189.391 43.1966 189.435C42.6015 189.478 42.0676 189.685 41.5951 190.056L40.3524 189.36ZM56.2047 196.419L51.3038 193.675L48.7238 196.255C49.1793 196.133 49.692 196.114 50.2617 196.198C50.839 196.274 51.3697 196.448 51.8537 196.719C52.6263 197.152 53.1226 197.636 53.3426 198.171C53.5701 198.698 53.5788 199.227 53.3687 199.756C53.1754 200.284 52.8487 200.777 52.3885 201.238C51.8454 201.781 51.2331 202.197 50.5518 202.486C49.8705 202.775 49.1447 202.899 48.3745 202.856C47.6136 202.818 46.8515 202.585 46.0882 202.158C45.1108 201.61 44.5233 200.964 44.3256 200.217C44.128 199.471 44.3034 198.722 44.8521 197.97L46.0947 198.666C45.7857 199.164 45.706 199.643 45.8556 200.103C46.0051 200.564 46.3777 200.961 46.9735 201.294C47.7088 201.706 48.44 201.839 49.1669 201.693C49.9013 201.539 50.5627 201.168 51.1512 200.58C51.7396 199.991 52.006 199.435 51.9506 198.909C51.9026 198.376 51.5156 197.907 50.7896 197.5C50.2962 197.224 49.7653 197.079 49.1968 197.067C48.6452 197.052 48.1197 197.164 47.6202 197.402L46.4194 196.73L51.0362 192.113L57.1099 195.514L56.2047 196.419ZM64.9722 201.329L60.0713 198.585L57.4913 201.165C57.9468 201.043 58.4594 201.024 59.0292 201.108C59.6065 201.184 60.1371 201.358 60.6212 201.629C61.3938 202.062 61.8901 202.546 62.1101 203.081C62.3376 203.608 62.3463 204.137 62.1362 204.666C61.9429 205.194 61.6162 205.687 61.156 206.148C60.6129 206.691 60.0006 207.107 59.3193 207.396C58.638 207.685 57.9122 207.809 57.142 207.766C56.3811 207.728 55.619 207.495 54.8557 207.068C53.8783 206.52 53.2908 205.874 53.0931 205.127C52.8954 204.381 53.0709 203.632 53.6195 202.88L54.8622 203.576C54.5532 204.074 54.4735 204.553 54.623 205.013C54.7726 205.474 55.1452 205.871 55.741 206.204C56.4763 206.616 57.2075 206.749 57.9343 206.603C58.6688 206.449 59.3302 206.078 59.9186 205.49C60.5071 204.901 60.7735 204.345 60.718 203.819C60.6701 203.286 60.2831 202.817 59.557 202.41C59.0637 202.134 58.5328 201.989 57.9643 201.977C57.4127 201.962 56.8871 202.074 56.3877 202.312L55.1869 201.64L59.8037 197.023L65.8774 200.424L64.9722 201.329ZM61.5302 207.928L62.311 207.147L72.7113 204.393L74.2332 205.245L68.8469 210.631L70.2432 211.413L69.3492 212.307L67.953 211.525L66.1311 213.347L64.8745 212.643L66.6963 210.821L61.5302 207.928ZM71.9575 205.647L63.8902 207.855L67.6461 209.959L71.9575 205.647ZM86.1103 213.026L74.8508 218.23L73.5663 217.511L84.7798 212.44L79.3902 209.422L80.2729 208.539L86.8911 212.245L86.1103 213.026ZM92.0031 218.109C92.6357 217.157 92.4168 216.381 91.3463 215.782C90.5179 215.318 89.6386 215.232 88.7085 215.523C87.7859 215.806 86.7371 216.543 85.562 217.733C86.1684 217.46 86.8277 217.353 87.5398 217.41C88.2687 217.465 88.9404 217.665 89.5548 218.009C90.5135 218.546 91.0354 219.215 91.1204 220.016C91.2147 220.822 90.8356 221.651 89.9832 222.503C89.4702 223.016 88.8844 223.406 88.2257 223.673C87.5763 223.945 86.8796 224.06 86.1355 224.02C85.4008 223.986 84.6797 223.77 83.9722 223.374C83.0135 222.837 82.4377 222.244 82.2448 221.594C82.0519 220.945 82.154 220.255 82.5509 219.524C82.9479 218.793 83.5952 217.979 84.493 217.081C87.2616 214.312 89.8373 213.595 92.2203 214.93C93.1325 215.441 93.6493 216.042 93.7708 216.734C93.8922 217.425 93.6939 218.103 93.176 218.766L92.0031 218.109ZM88.4182 218.732C88.0179 218.508 87.573 218.364 87.0835 218.302C86.6015 218.232 86.1131 218.271 85.6181 218.417C85.14 218.561 84.7085 218.826 84.3238 219.21C83.7505 219.784 83.4875 220.366 83.535 220.958C83.59 221.542 83.9991 222.047 84.7624 222.475C85.414 222.84 86.0928 222.967 86.7988 222.856C87.5217 222.743 88.1623 222.407 88.7205 221.849C89.3089 221.261 89.583 220.696 89.5426 220.156C89.5097 219.608 89.1349 219.133 88.4182 218.732ZM95.0981 220.019C95.8572 219.361 96.7309 219.003 97.7189 218.945C98.7069 218.886 99.6756 219.123 100.625 219.654C101.258 220.009 101.708 220.408 101.976 220.852C102.26 221.294 102.36 221.738 102.276 222.185C102.201 222.638 101.964 223.064 101.564 223.464C101.096 223.931 100.525 224.241 99.8507 224.393C99.1855 224.55 98.5385 224.529 97.9098 224.33L97.8533 224.386C98.3376 224.846 98.5794 225.352 98.5785 225.905C98.5777 226.457 98.2906 227.02 97.7172 227.594C97.2872 228.024 96.7777 228.344 96.1887 228.556C95.6072 228.76 94.9764 228.824 94.2962 228.749C93.616 228.675 92.9362 228.447 92.2567 228.066C91.27 227.514 90.6676 226.853 90.4496 226.083C90.239 225.306 90.4813 224.512 91.1763 223.701L92.405 224.389C92.0175 224.878 91.8759 225.376 91.9802 225.881C92.0845 226.387 92.4624 226.822 93.114 227.187C93.7656 227.552 94.3947 227.693 95.0014 227.609C95.625 227.522 96.1555 227.26 96.593 226.823C97.1588 226.257 97.3335 225.719 97.117 225.21C96.9005 224.7 96.3222 224.182 95.3821 223.656L95.061 223.476L95.921 222.616L96.2561 222.804C97.12 223.276 97.8801 223.525 98.5363 223.551C99.2001 223.57 99.7659 223.345 100.234 222.877C100.633 222.478 100.791 222.066 100.707 221.642C100.632 221.223 100.296 220.847 99.7005 220.513C99.1234 220.19 98.5373 220.05 97.9422 220.094C97.3471 220.137 96.8132 220.344 96.3407 220.715L95.0981 220.019ZM98.7409 228.767L99.5217 227.986L109.922 225.232L111.444 226.084L106.058 231.47L107.454 232.252L106.56 233.146L105.164 232.364L103.342 234.186L102.085 233.482L103.907 231.66L98.7409 228.767ZM109.168 226.486L101.101 228.694L104.857 230.798L109.168 226.486ZM110.402 236.851C112.354 236.744 113.91 236.633 115.07 236.518C116.239 236.395 117.318 236.194 118.31 235.914C119.319 235.631 120.083 235.23 120.604 234.709C121.094 234.219 121.33 233.75 121.311 233.305C121.309 232.856 120.983 232.45 120.331 232.085C119.698 231.73 119.043 231.616 118.364 231.743C117.703 231.866 117.091 232.188 116.527 232.708L115.299 232.02C116.181 231.196 117.15 230.721 118.206 230.594C119.262 230.468 120.26 230.668 121.2 231.194C122.159 231.731 122.702 232.371 122.831 233.114C122.968 233.862 122.66 234.613 121.906 235.367C121.28 235.994 120.436 236.474 119.374 236.81C118.33 237.143 117.288 237.371 116.249 237.495C115.218 237.612 113.948 237.713 112.44 237.798L117.243 240.488L116.383 241.348L109.667 237.587L110.402 236.851ZM129.623 239.177C130.255 238.225 130.036 237.449 128.966 236.85C128.138 236.386 127.258 236.3 126.328 236.591C125.406 236.874 124.357 237.611 123.182 238.801C123.788 238.528 124.447 238.421 125.159 238.478C125.888 238.533 126.56 238.733 127.174 239.077C128.133 239.614 128.655 240.283 128.74 241.084C128.834 241.89 128.455 242.719 127.603 243.571C127.09 244.084 126.504 244.474 125.845 244.741C125.196 245.013 124.499 245.129 123.755 245.088C123.02 245.054 122.299 244.838 121.592 244.442C120.633 243.905 120.057 243.312 119.865 242.662C119.672 242.013 119.774 241.323 120.171 240.592C120.568 239.861 121.215 239.047 122.113 238.149C124.881 235.38 127.457 234.663 129.84 235.998C130.752 236.509 131.269 237.11 131.39 237.802C131.512 238.493 131.314 239.171 130.796 239.834L129.623 239.177ZM126.038 239.8C125.638 239.576 125.193 239.433 124.703 239.37C124.221 239.3 123.733 239.339 123.238 239.485C122.76 239.629 122.328 239.894 121.944 240.278C121.37 240.852 121.107 241.434 121.155 242.026C121.21 242.61 121.619 243.115 122.382 243.543C123.034 243.908 123.713 244.035 124.419 243.924C125.141 243.811 125.782 243.476 126.34 242.917C126.929 242.329 127.203 241.764 127.162 241.224C127.129 240.676 126.755 240.201 126.038 239.8ZM128.139 245.231L128.919 244.45L139.32 241.695L140.842 242.547L135.455 247.934L136.851 248.716L135.958 249.61L134.561 248.828L132.739 250.649L131.483 249.946L133.305 248.124L128.139 245.231ZM138.566 242.95L130.499 245.158L134.254 247.261L138.566 242.95ZM148.996 248.244L137.737 253.448L136.452 252.729L147.666 247.658L142.276 244.639L143.159 243.757L149.777 247.463L148.996 248.244ZM150.925 254.32C152.223 253.022 153.494 252.157 154.74 251.725C155.993 251.285 157.271 251.43 158.574 252.16C159.868 252.885 160.409 253.759 160.199 254.783C159.996 255.799 159.246 256.956 157.948 258.253C156.628 259.573 155.341 260.453 154.088 260.893C152.835 261.333 151.562 261.191 150.268 260.466C148.965 259.736 148.419 258.859 148.629 257.836C148.84 256.812 149.605 255.64 150.925 254.32ZM156.692 257.549C157.348 256.893 157.847 256.307 158.187 255.792C158.545 255.275 158.696 254.782 158.64 254.316C158.593 253.854 158.258 253.449 157.635 253.099C157.002 252.745 156.378 252.613 155.764 252.705C155.159 252.802 154.571 253.049 153.999 253.446C153.444 253.842 152.838 254.367 152.182 255.024C151.503 255.703 150.984 256.301 150.627 256.818C150.278 257.341 150.127 257.833 150.174 258.295C150.23 258.762 150.574 259.172 151.207 259.527C151.831 259.876 152.445 260.002 153.05 259.906C153.664 259.814 154.253 259.567 154.815 259.164C155.387 258.767 156.013 258.228 156.692 257.549ZM156.189 262.493C158.141 262.386 159.697 262.275 160.858 262.16C162.026 262.037 163.106 261.836 164.097 261.556C165.106 261.273 165.871 260.872 166.391 260.351C166.881 259.861 167.117 259.393 167.099 258.947C167.097 258.498 166.77 258.092 166.118 257.727C165.485 257.372 164.83 257.258 164.152 257.385C163.49 257.509 162.878 257.831 162.315 258.351L161.086 257.662C161.968 256.838 162.937 256.363 163.993 256.236C165.049 256.11 166.047 256.31 166.987 256.836C167.946 257.373 168.489 258.013 168.618 258.756C168.756 259.504 168.447 260.255 167.693 261.01C167.067 261.636 166.223 262.116 165.162 262.452C164.117 262.785 163.075 263.013 162.036 263.138C161.005 263.254 159.735 263.355 158.227 263.44L163.03 266.13L162.17 266.99L155.454 263.229L156.189 262.493ZM169.642 261.766C170.401 261.108 171.275 260.75 172.263 260.691C173.251 260.633 174.22 260.869 175.169 261.401C175.802 261.755 176.252 262.155 176.52 262.599C176.804 263.04 176.904 263.485 176.82 263.932C176.745 264.384 176.508 264.811 176.108 265.21C175.64 265.678 175.069 265.988 174.395 266.14C173.729 266.297 173.083 266.276 172.454 266.077L172.397 266.133C172.882 266.593 173.123 267.099 173.123 267.651C173.122 268.204 172.835 268.767 172.261 269.34C171.831 269.77 171.322 270.091 170.733 270.303C170.151 270.507 169.52 270.571 168.84 270.496C168.16 270.421 167.48 270.193 166.801 269.813C165.814 269.26 165.212 268.599 164.994 267.83C164.783 267.053 165.025 266.259 165.72 265.448L166.949 266.136C166.562 266.625 166.42 267.122 166.524 267.628C166.629 268.134 167.006 268.569 167.658 268.934C168.31 269.299 168.939 269.439 169.545 269.355C170.169 269.269 170.7 269.007 171.137 268.57C171.703 268.004 171.878 267.466 171.661 266.957C171.445 266.447 170.866 265.929 169.926 265.402L169.605 265.223L170.465 264.363L170.8 264.55C171.664 265.022 172.424 265.271 173.08 265.298C173.744 265.316 174.31 265.092 174.778 264.624C175.177 264.224 175.335 263.812 175.251 263.389C175.176 262.97 174.84 262.594 174.245 262.26C173.667 261.937 173.081 261.797 172.486 261.84C171.891 261.884 171.357 262.091 170.885 262.462L169.642 261.766ZM185.361 268.609L174.102 273.814L172.817 273.094L184.031 268.023L178.641 265.005L179.524 264.122L186.142 267.829L185.361 268.609Z" fill="white"/>
<path d="M338.743 328.699L336.295 331.147L339.588 332.991L338.8 333.779L335.507 331.935L332.985 334.457L336.667 336.519L335.879 337.307L331.017 334.584L338.351 327.25L343.213 329.973L342.425 330.761L338.743 328.699ZM341.372 340.383L341.83 337.296L338.066 338.532L336.834 337.842L341.987 336.269L342.593 332.084L343.928 332.832L343.48 335.909L347.221 334.676L348.453 335.366L343.323 336.935L342.708 341.131L341.372 340.383ZM349.745 337.745C350.308 337.547 350.926 337.467 351.602 337.506C352.293 337.544 352.945 337.734 353.559 338.078C354.19 338.431 354.637 338.873 354.902 339.404C355.176 339.94 355.235 340.514 355.081 341.127C354.933 341.733 354.565 342.33 353.977 342.918C353.396 343.5 352.73 343.936 351.981 344.226C351.232 344.517 350.472 344.643 349.701 344.605C348.939 344.572 348.242 344.378 347.611 344.025C347.006 343.686 346.579 343.277 346.329 342.799C346.095 342.318 346.022 341.845 346.109 341.381L342.316 345.174L341.136 344.513L349.626 336.023L350.806 336.684L349.745 337.745ZM352.771 342.243C353.205 341.809 353.476 341.37 353.582 340.927C353.688 340.483 353.639 340.074 353.436 339.697C353.241 339.326 352.923 339.017 352.482 338.77C352.05 338.528 351.561 338.39 351.014 338.357C350.483 338.322 349.94 338.406 349.386 338.61C348.848 338.811 348.365 339.125 347.938 339.552C347.503 339.987 347.23 340.429 347.116 340.879C347.019 341.327 347.064 341.741 347.252 342.119C347.456 342.495 347.773 342.804 348.206 343.046C348.646 343.293 349.132 343.434 349.664 343.469C350.21 343.503 350.753 343.418 351.291 343.217C351.837 343.009 352.33 342.684 352.771 342.243Z" fill="white"/>
<path d="M314.181 350.973C316.133 350.866 317.689 350.754 318.85 350.639C320.018 350.517 321.098 350.315 322.089 350.035C323.098 349.753 323.863 349.351 324.383 348.831C324.873 348.34 325.109 347.872 325.091 347.426C325.089 346.978 324.762 346.571 324.11 346.207C323.477 345.852 322.822 345.738 322.144 345.864C321.482 345.988 320.87 346.31 320.307 346.83L319.078 346.142C319.96 345.318 320.929 344.843 321.985 344.716C323.041 344.59 324.039 344.79 324.979 345.316C325.938 345.853 326.481 346.493 326.61 347.236C326.748 347.984 326.439 348.735 325.685 349.489C325.059 350.115 324.215 350.596 323.154 350.931C322.109 351.264 321.067 351.493 320.028 351.617C318.997 351.734 317.727 351.835 316.219 351.92L321.022 354.61L320.162 355.47L313.446 351.709L314.181 350.973ZM323.055 354.389L323.836 353.608L334.236 350.853L335.758 351.706L330.372 357.092L331.768 357.874L330.874 358.768L329.478 357.986L327.656 359.808L326.399 359.104L328.221 357.282L323.055 354.389ZM333.482 352.108L325.415 354.316L329.171 356.419L333.482 352.108ZM345.937 353.417L329.529 363.858L328.272 363.154L344.667 352.705L345.937 353.417ZM337.634 364.107C339.586 364 341.142 363.889 342.302 363.774C343.471 363.651 344.55 363.45 345.542 363.169C346.551 362.887 347.315 362.485 347.836 361.965C348.326 361.475 348.562 361.006 348.543 360.56C348.541 360.112 348.215 359.706 347.563 359.341C346.93 358.986 346.274 358.872 345.596 358.998C344.935 359.122 344.323 359.444 343.759 359.964L342.531 359.276C343.413 358.452 344.382 357.977 345.438 357.85C346.493 357.724 347.492 357.924 348.432 358.45C349.39 358.987 349.934 359.627 350.063 360.37C350.2 361.118 349.892 361.869 349.138 362.623C348.512 363.25 347.668 363.73 346.606 364.066C345.562 364.399 344.52 364.627 343.481 364.751C342.45 364.868 341.18 364.969 339.671 365.054L344.475 367.744L343.615 368.604L336.899 364.843L337.634 364.107ZM356.855 366.433C357.487 365.481 357.268 364.705 356.198 364.106C355.369 363.642 354.49 363.556 353.56 363.847C352.638 364.13 351.589 364.867 350.414 366.057C351.02 365.784 351.679 365.677 352.391 365.734C353.12 365.789 353.792 365.989 354.406 366.333C355.365 366.87 355.887 367.539 355.972 368.34C356.066 369.146 355.687 369.975 354.835 370.827C354.322 371.34 353.736 371.73 353.077 371.997C352.428 372.269 351.731 372.384 350.987 372.344C350.252 372.309 349.531 372.094 348.824 371.698C347.865 371.161 347.289 370.568 347.096 369.918C346.904 369.269 347.006 368.579 347.403 367.848C347.8 367.117 348.447 366.303 349.345 365.405C352.113 362.636 354.689 361.919 357.072 363.254C357.984 363.765 358.501 364.366 358.622 365.058C358.744 365.749 358.546 366.427 358.028 367.09L356.855 366.433ZM353.27 367.056C352.87 366.832 352.425 366.688 351.935 366.626C351.453 366.556 350.965 366.595 350.47 366.741C349.992 366.885 349.56 367.15 349.175 367.534C348.602 368.108 348.339 368.69 348.387 369.282C348.442 369.866 348.851 370.371 349.614 370.799C350.266 371.164 350.944 371.291 351.65 371.18C352.373 371.067 353.014 370.731 353.572 370.173C354.161 369.585 354.435 369.02 354.394 368.48C354.361 367.932 353.987 367.457 353.27 367.056Z" fill="white"/>
<g filter="url(#filter0_d_6708_105)">
<rect width="392.073" height="212.611" rx="12" transform="matrix(0.872496 0.488621 -0.707107 0.707107 213.236 40.9663)" fill="url(#paint1_radial_6708_105)" shape-rendering="crispEdges"/>
<path d="M212.47 69.0193C212.756 69.2453 212.946 69.5209 213.039 69.8461C213.14 70.1761 213.139 70.5142 213.035 70.8606C212.94 71.2117 212.746 71.5344 212.452 71.8286C212.08 72.1999 211.627 72.4708 211.093 72.6413C210.565 72.8048 209.989 72.8483 209.365 72.7717C208.756 72.6929 208.149 72.4841 207.544 72.1453L204.173 70.2575L211.496 62.9337L214.738 64.749C215.351 65.0926 215.79 65.4695 216.054 65.8797C216.325 66.2828 216.429 66.685 216.365 67.0862C216.301 67.4874 216.094 67.8632 215.743 68.2134C215.309 68.6477 214.801 68.9262 214.22 69.0488C213.655 69.1693 213.071 69.1595 212.47 69.0193ZM209.514 66.7572L211.497 67.8682C212.05 68.1779 212.583 68.3125 213.096 68.2718C213.609 68.231 214.051 68.025 214.422 67.6538C214.793 67.2825 214.933 66.9071 214.84 66.5275C214.748 66.1479 214.416 65.7984 213.846 65.4789L211.888 64.3825L209.514 66.7572ZM208.228 71.2992C208.816 71.6283 209.386 71.7728 209.939 71.7326C210.491 71.6923 210.967 71.4726 211.366 71.0733C211.773 70.667 211.919 70.2515 211.804 69.8267C211.696 69.3949 211.353 69.0168 210.774 68.6925L208.725 67.5453L206.141 70.1302L208.228 71.2992ZM214.583 71.5635C215.172 70.9751 215.834 70.5425 216.569 70.2657C217.311 69.982 218.06 69.8603 218.815 69.9008C219.579 69.946 220.276 70.1453 220.907 70.4987C221.529 70.8472 221.961 71.2583 222.202 71.732C222.443 72.2057 222.511 72.6701 222.406 73.1252L223.457 72.0745L224.65 72.7425L218.892 78.5006L217.699 77.8326L218.771 76.7608C218.201 76.9664 217.571 77.0505 216.88 77.0133C216.205 76.9739 215.56 76.7824 214.947 76.4387C214.316 76.0853 213.871 75.6398 213.614 75.102C213.356 74.5642 213.308 73.9854 213.469 73.3655C213.63 72.7456 214.002 72.1449 214.583 71.5635ZM220.589 74.943C221.023 74.5087 221.293 74.0699 221.399 73.6267C221.505 73.1835 221.457 72.7737 221.253 72.3974C221.065 72.019 220.751 71.7064 220.31 71.4595C219.869 71.2126 219.383 71.0716 218.852 71.0364C218.321 71.0012 217.786 71.0842 217.248 71.2855C216.71 71.4867 216.223 71.8044 215.789 72.2387C215.348 72.6801 215.071 73.1258 214.957 73.5761C214.851 74.0193 214.892 74.4302 215.08 74.8086C215.275 75.18 215.593 75.4892 216.034 75.736C216.474 75.9829 216.96 76.1239 217.492 76.1591C218.038 76.1921 218.581 76.108 219.119 75.9068C219.665 75.6986 220.154 75.3773 220.589 74.943ZM229.841 72.5024L222.066 80.2779L220.886 79.6172L228.661 71.8416L229.841 72.5024ZM226.536 78.2571C227.124 77.6687 227.786 77.2361 228.521 76.9594C229.263 76.6756 230.012 76.5539 230.767 76.5944C231.531 76.6396 232.228 76.8389 232.859 77.1923C233.481 77.5408 233.913 77.9519 234.154 78.4256C234.395 78.8993 234.463 79.3637 234.359 79.8188L235.409 78.7681L236.602 79.4361L230.844 85.1942L229.651 84.5262L230.723 83.4544C230.154 83.66 229.523 83.7441 228.832 83.7069C228.157 83.6675 227.513 83.476 226.899 83.1323C226.268 82.7789 225.824 82.3334 225.566 81.7956C225.308 81.2578 225.26 80.679 225.421 80.0591C225.583 79.4392 225.954 78.8385 226.536 78.2571ZM232.541 81.6366C232.975 81.2023 233.245 80.7635 233.352 80.3203C233.458 79.8771 233.409 79.4673 233.206 79.091C233.018 78.7126 232.703 78.4 232.262 78.1531C231.822 77.9062 231.336 77.7652 230.804 77.73C230.273 77.6948 229.739 77.7778 229.2 77.9791C228.662 78.1803 228.176 78.498 227.741 78.9323C227.3 79.3737 227.023 79.8194 226.91 80.2697C226.804 80.7129 226.844 81.1238 227.032 81.5022C227.227 81.8736 227.545 82.1828 227.986 82.4297C228.427 82.6765 228.913 82.8175 229.444 82.8527C229.991 82.8858 230.533 82.8017 231.071 82.6004C231.617 82.3922 232.107 82.0709 232.541 81.6366ZM242.163 82.3862C243.027 82.8703 243.514 83.476 243.622 84.2035C243.738 84.9239 243.396 85.6834 242.598 86.4819L239.204 89.8759L238.037 89.2224L241.294 85.9651C241.869 85.3906 242.129 84.8536 242.076 84.3539C242.03 83.8472 241.7 83.4221 241.086 83.0784C240.464 82.7299 239.809 82.6091 239.123 82.7162C238.444 82.8281 237.804 83.1853 237.202 83.7877L234.018 86.9715L232.838 86.3108L238.596 80.5527L239.776 81.2134L238.956 82.033C239.484 81.8695 240.027 81.8185 240.586 81.88C241.153 81.9464 241.679 82.1152 242.163 82.3862ZM243.58 87.8187C244.175 87.2233 244.841 86.7872 245.576 86.5105C246.318 86.2268 247.071 86.1075 247.835 86.1528C248.607 86.2029 249.331 86.4167 250.005 86.7943C250.878 87.2832 251.423 87.8566 251.642 88.5144C251.869 89.1772 251.769 89.8641 251.341 90.5752L250.07 89.8636C250.3 89.4456 250.339 89.0358 250.187 88.6342C250.045 88.2374 249.714 87.8938 249.196 87.6034C248.521 87.2258 247.788 87.11 246.995 87.2559C246.208 87.3948 245.472 87.8075 244.786 88.494C244.092 89.1875 243.764 89.8396 243.8 90.4502C243.837 91.0608 244.192 91.5549 244.867 91.9325C245.385 92.2229 245.915 92.3668 246.457 92.3643C246.999 92.3618 247.517 92.2147 248.011 91.9231L249.282 92.6346C248.503 93.1166 247.65 93.3764 246.722 93.4142C245.801 93.445 244.913 93.2208 244.057 92.7415C243.383 92.364 242.905 91.905 242.623 91.3645C242.35 90.8289 242.29 90.2546 242.445 89.6417C242.599 89.0288 242.977 88.4212 243.58 87.8187ZM258.589 95.8963C258.407 96.0784 258.201 96.2638 257.972 96.4524L252.293 93.2722C251.769 93.8638 251.562 94.4417 251.672 95.006C251.797 95.5681 252.171 96.0234 252.794 96.3719C253.304 96.6575 253.822 96.8001 254.348 96.7998C254.89 96.7972 255.391 96.6736 255.852 96.4288L257.122 97.1404C256.379 97.5873 255.547 97.8261 254.626 97.8569C253.712 97.8807 252.832 97.6554 251.985 97.181C251.31 96.8034 250.828 96.342 250.537 95.7967C250.255 95.2562 250.187 94.6772 250.333 94.0594C250.486 93.4347 250.86 92.8246 251.455 92.2291C252.051 91.6337 252.719 91.1941 253.462 90.9104C254.204 90.6267 254.958 90.5133 255.723 90.5704C256.504 90.6254 257.24 90.8465 257.932 91.2337C258.606 91.6113 259.083 92.0644 259.364 92.593C259.644 93.1216 259.713 93.6735 259.569 94.2487C259.441 94.8217 259.114 95.3709 258.589 95.8963ZM257.57 95.0141C257.934 94.6499 258.146 94.2825 258.207 93.912C258.274 93.5344 258.201 93.1823 257.989 92.8556C257.792 92.5267 257.486 92.2461 257.071 92.0138C256.475 91.6798 255.811 91.5483 255.079 91.6193C254.356 91.6952 253.691 91.9894 253.084 92.5019L257.57 95.0141Z" fill="white"/>
<path d="M184.177 103.784L186.111 101.851C190.719 104.038 194.409 103.22 196.385 101.245C198.444 99.1851 198.015 96.9448 195.045 94.4945L191.406 91.539C189.715 90.0346 189.233 89.1415 190.452 87.9227C191.713 86.6618 193.588 86.7284 196.751 88.5C200.355 90.5185 200.764 92.0917 199.041 93.8149L198.768 94.0881L201.543 95.642L201.669 95.5159C204.148 93.0361 204.194 90.0782 200.506 87.4555L202.46 85.5011L199.867 84.0489L197.934 85.9823C193.118 83.6787 189.416 84.5891 187.525 86.4804C185.213 88.7921 186.195 91.0466 188.705 93.1078L192.39 96.0568C194.258 97.6274 194.677 98.5835 193.458 99.8023C192.134 101.126 190.379 101.061 187.06 99.2025C183.248 97.0678 182.87 95.5446 184.551 93.8634L184.888 93.5272L182.087 91.9588L181.961 92.0849C179.292 94.7539 179.653 97.7099 183.539 100.378L181.584 102.332L184.177 103.784ZM205.998 113.054C210.743 115.711 215.093 115.852 217.761 113.183C219.716 111.229 219.347 109.252 217.189 107.486L217.357 107.318C219.881 108.272 222.183 107.791 223.78 106.194C226.176 103.798 224.984 101.066 220.55 98.5825C215.157 95.562 210.608 96.2273 207.855 98.9803L207.666 99.1695L210.622 100.825L210.769 100.678C212.618 98.8285 214.621 98.6058 218.173 100.595C221.544 102.483 221.93 103.715 220.564 105.081C219.303 106.342 217.584 106.363 215.483 105.187L211.023 102.689L209.132 104.58L213.981 107.296C216.159 108.516 216.7 109.835 215.271 111.264C213.611 112.924 211.642 112.871 208.038 110.852C204.2 108.703 204.128 107.319 205.977 105.469L206.272 105.175L203.316 103.52L202.979 103.856C200.121 106.714 200.553 110.004 205.998 113.054ZM228.881 125.541L231.739 122.683L234.721 124.353L236.759 122.314L233.777 120.644L242.961 111.461L239.72 109.646L219.442 113.338L217.866 114.914L228.964 121.129L226.106 123.987L228.881 125.541ZM223.768 115.039L223.936 114.871L237.331 112.439L237.538 112.555L231.003 119.091L223.768 115.039ZM231.802 130.849C233.41 131.749 234.974 131.641 236.277 130.339L239.954 126.661L236.428 124.686L233.17 127.943L234.726 128.815L234.285 129.256C233.844 129.697 233.552 129.665 233.111 129.418L232.256 128.939L230.869 130.326L231.802 130.849ZM245.881 135.389C250.626 138.047 254.976 138.188 257.645 135.519C259.599 133.564 259.23 131.587 257.072 129.822L257.24 129.653C259.764 130.608 262.066 130.127 263.663 128.53C266.059 126.134 264.867 123.401 260.433 120.918C255.04 117.898 250.491 118.563 247.738 121.316L247.549 121.505L250.505 123.161L250.652 123.013C252.501 121.164 254.504 120.941 258.056 122.931C261.427 124.819 261.813 126.051 260.447 127.417C259.186 128.678 257.467 128.699 255.366 127.522L250.906 125.025L249.015 126.916L253.864 129.631C256.042 130.851 256.583 132.171 255.154 133.6C253.494 135.26 251.525 135.206 247.921 133.188C244.083 131.039 244.011 129.654 245.861 127.805L246.155 127.511L243.199 125.855L242.863 126.191C240.005 129.05 240.436 132.34 245.881 135.389ZM261.534 143.861C267.103 138.292 272.567 136.63 281.249 135.756L283.077 133.927L268.712 125.882L266.673 127.921L278.057 134.296L277.889 134.464C272.109 134.702 264.906 135.553 258.371 142.089L261.534 143.861ZM277.483 153.087C282.332 155.803 286.767 156.221 289.499 153.489C291.432 151.556 291.032 149.529 288.777 147.577L288.945 147.409C291.677 148.48 294.155 148.065 295.773 146.447C297.98 144.24 296.91 141.346 291.983 138.587C287.056 135.828 283.044 135.876 280.837 138.082C279.219 139.7 279.412 141.611 281.503 143.241L281.335 143.41C278.327 142.413 275.511 142.64 273.578 144.573C270.846 147.305 272.582 150.343 277.483 153.087ZM285.783 144.786C282.438 142.913 281.767 141.521 283.133 140.155C284.436 138.852 286.235 138.712 289.839 140.73C293.47 142.763 293.797 144.094 292.494 145.397C291.128 146.763 289.154 146.674 285.783 144.786ZM279.626 150.944C275.84 148.823 275.185 147.375 276.825 145.736C278.359 144.202 280.468 144.236 284.228 146.341C287.988 148.447 288.627 149.952 287.093 151.486C285.454 153.125 283.386 153.049 279.626 150.944ZM285.638 160.998C287.246 161.899 288.81 161.791 290.113 160.488L293.79 156.811L290.264 154.836L287.006 158.093L288.562 158.964L288.121 159.406C287.68 159.847 287.388 159.815 286.947 159.568L286.092 159.089L284.705 160.476L285.638 160.998ZM305.71 168.567L308.568 165.709L311.55 167.379L313.588 165.341L310.606 163.671L319.79 154.487L316.548 152.672L296.271 156.364L294.695 157.94L305.793 164.155L302.935 167.013L305.71 168.567ZM300.597 158.065L300.765 157.897L314.16 155.465L314.367 155.581L307.832 162.117L300.597 158.065ZM323.613 178.593L326.471 175.735L329.453 177.405L331.491 175.367L328.509 173.697L337.693 164.513L334.452 162.698L314.174 166.39L312.598 167.966L323.696 174.182L320.838 177.04L323.613 178.593ZM318.5 168.092L318.668 167.923L332.063 165.491L332.27 165.607L325.735 172.143L318.5 168.092Z" fill="white"/>
<path d="M121.769 163.745L120.589 163.084L121.676 154.595L115.844 160.427L114.664 159.766L121.998 152.432L123.178 153.093L122.102 161.571L127.924 155.75L129.103 156.411L121.769 163.745ZM135.84 162.642L130.081 168.4L128.902 167.739L129.753 166.888C129.234 167.057 128.687 167.111 128.113 167.052C127.554 166.99 127.033 166.824 126.549 166.553C125.995 166.243 125.59 165.874 125.331 165.445C125.079 165.009 125.009 164.532 125.121 164.016C125.242 163.504 125.568 162.982 126.101 162.45L129.474 159.077L130.641 159.73L127.394 162.977C126.826 163.545 126.566 164.082 126.612 164.588C126.665 165.088 126.998 165.51 127.612 165.853C128.243 166.207 128.898 166.327 129.576 166.216C130.254 166.104 130.895 165.746 131.497 165.144L134.66 161.981L135.84 162.642ZM146.481 168.437C147.034 168.747 147.432 169.118 147.675 169.549C147.925 169.973 147.99 170.441 147.869 170.953C147.749 171.464 147.422 171.986 146.89 172.519L143.496 175.913L142.329 175.259L145.586 172.002C146.161 171.427 146.421 170.89 146.368 170.391C146.331 169.889 146.014 169.471 145.417 169.137C144.804 168.793 144.154 168.681 143.469 168.8C142.791 168.912 142.15 169.269 141.548 169.871L138.375 173.044L137.208 172.391L140.465 169.134C141.039 168.559 141.3 168.022 141.247 167.523C141.209 167.021 140.892 166.603 140.296 166.269C139.682 165.925 139.033 165.813 138.348 165.932C137.669 166.044 137.029 166.401 136.427 167.003L133.253 170.176L132.074 169.516L137.832 163.758L139.011 164.418L138.181 165.248C138.716 165.078 139.258 165.021 139.808 165.078C140.367 165.139 140.884 165.303 141.36 165.569C141.956 165.903 142.375 166.307 142.616 166.781C142.856 167.255 142.879 167.765 142.684 168.311C143.289 168.016 143.932 167.884 144.615 167.917C145.297 167.949 145.919 168.123 146.481 168.437ZM151.297 172.971C151.883 172.763 152.517 172.681 153.201 172.726C153.885 172.77 154.525 172.959 155.122 173.293C155.761 173.651 156.213 174.096 156.478 174.626C156.743 175.157 156.798 175.729 156.644 176.342C156.496 176.948 156.128 177.545 155.54 178.133C154.959 178.715 154.293 179.151 153.544 179.442C152.795 179.732 152.035 179.859 151.264 179.82C150.502 179.787 149.805 179.594 149.174 179.24C148.561 178.896 148.129 178.485 147.879 178.007C147.638 177.533 147.569 177.063 147.672 176.596L146.611 177.657L145.431 176.996L153.207 169.221L154.387 169.882L151.297 172.971ZM154.334 177.458C154.768 177.024 155.039 176.585 155.145 176.142C155.251 175.699 155.202 175.289 154.999 174.912C154.804 174.541 154.486 174.232 154.045 173.985C153.613 173.743 153.124 173.605 152.577 173.572C152.046 173.537 151.503 173.621 150.949 173.825C150.411 174.026 149.928 174.34 149.501 174.768C149.066 175.202 148.793 175.644 148.679 176.094C148.582 176.542 148.627 176.956 148.815 177.334C149.019 177.71 149.336 178.02 149.769 178.262C150.209 178.508 150.695 178.65 151.227 178.685C151.773 178.718 152.316 178.634 152.854 178.432C153.4 178.224 153.893 177.899 154.334 177.458ZM163.775 182.434C163.593 182.616 163.387 182.801 163.158 182.99L157.48 179.81C156.955 180.401 156.748 180.979 156.858 181.544C156.984 182.106 157.358 182.561 157.98 182.909C158.49 183.195 159.008 183.338 159.534 183.337C160.076 183.335 160.577 183.211 161.038 182.966L162.309 183.678C161.565 184.125 160.733 184.364 159.812 184.394C158.898 184.418 158.018 184.193 157.171 183.719C156.497 183.341 156.014 182.88 155.724 182.334C155.442 181.794 155.373 181.215 155.519 180.597C155.672 179.972 156.046 179.362 156.642 178.767C157.237 178.171 157.906 177.732 158.648 177.448C159.39 177.164 160.144 177.051 160.909 177.108C161.691 177.163 162.427 177.384 163.118 177.771C163.792 178.149 164.27 178.602 164.55 179.131C164.831 179.659 164.899 180.211 164.755 180.786C164.627 181.359 164.301 181.908 163.775 182.434ZM162.756 181.552C163.12 181.187 163.333 180.82 163.393 180.45C163.46 180.072 163.388 179.72 163.175 179.393C162.978 179.064 162.672 178.784 162.257 178.551C161.661 178.217 160.997 178.086 160.265 178.157C159.542 178.233 158.877 178.527 158.27 179.039L162.756 181.552ZM168.236 182.244C168.772 182.03 169.322 181.939 169.884 181.97C170.455 182.006 171.017 182.179 171.571 182.488L170.583 183.476L170.272 183.302C168.949 182.561 167.707 182.772 166.544 183.935L163.413 187.066L162.233 186.406L167.991 180.648L169.171 181.308L168.236 182.244Z" fill="white"/>
<path d="M103.25 170.93C104.009 170.272 104.883 169.914 105.871 169.855C106.859 169.797 107.828 170.033 108.777 170.565C109.41 170.919 109.86 171.319 110.128 171.763C110.412 172.204 110.512 172.649 110.428 173.096C110.353 173.548 110.116 173.974 109.716 174.374C109.249 174.842 108.677 175.152 108.003 175.304C107.338 175.461 106.691 175.44 106.062 175.24L106.005 175.297C106.49 175.757 106.731 176.263 106.731 176.815C106.73 177.368 106.443 177.931 105.869 178.504C105.439 178.934 104.93 179.255 104.341 179.467C103.759 179.67 103.128 179.735 102.448 179.66C101.768 179.585 101.088 179.357 100.409 178.977C99.4221 178.424 98.8197 177.763 98.6016 176.994C98.3911 176.217 98.6334 175.423 99.3284 174.612L100.557 175.3C100.17 175.789 100.028 176.286 100.132 176.792C100.237 177.298 100.615 177.733 101.266 178.098C101.918 178.463 102.547 178.603 103.154 178.519C103.777 178.433 104.308 178.171 104.745 177.734C105.311 177.168 105.486 176.63 105.269 176.12C105.053 175.611 104.474 175.093 103.534 174.566L103.213 174.386L104.073 173.526L104.408 173.714C105.272 174.186 106.032 174.435 106.688 174.462C107.352 174.48 107.918 174.256 108.386 173.788C108.786 173.388 108.943 172.976 108.859 172.552C108.784 172.134 108.448 171.758 107.853 171.424C107.276 171.101 106.689 170.961 106.094 171.004C105.499 171.048 104.965 171.255 104.493 171.626L103.25 170.93ZM119.102 177.989L114.202 175.244L111.622 177.824C112.077 177.703 112.59 177.684 113.159 177.768C113.737 177.844 114.267 178.017 114.751 178.289C115.524 178.721 116.02 179.205 116.24 179.74C116.468 180.268 116.477 180.796 116.266 181.326C116.073 181.853 115.746 182.347 115.286 182.807C114.743 183.35 114.131 183.766 113.45 184.056C112.768 184.345 112.042 184.468 111.272 184.425C110.511 184.387 109.749 184.155 108.986 183.727C108.009 183.18 107.421 182.533 107.223 181.787C107.026 181.041 107.201 180.292 107.75 179.54L108.992 180.236C108.683 180.733 108.604 181.213 108.753 181.673C108.903 182.133 109.275 182.53 109.871 182.864C110.607 183.276 111.338 183.409 112.065 183.262C112.799 183.109 113.46 182.738 114.049 182.149C114.637 181.561 114.904 181.004 114.848 180.479C114.8 179.946 114.413 179.476 113.687 179.07C113.194 178.793 112.663 178.649 112.095 178.637C111.543 178.622 111.017 178.734 110.518 178.972L109.317 178.299L113.934 173.682L120.008 177.084L119.102 177.989ZM127.87 182.899L122.969 180.154L120.389 182.734C120.845 182.613 121.357 182.594 121.927 182.678C122.504 182.754 123.035 182.928 123.519 183.199C124.291 183.631 124.788 184.115 125.008 184.65C125.235 185.178 125.244 185.706 125.034 186.236C124.841 186.763 124.514 187.257 124.054 187.717C123.511 188.26 122.898 188.677 122.217 188.966C121.536 189.255 120.81 189.378 120.04 189.335C119.279 189.297 118.517 189.065 117.753 188.637C116.776 188.09 116.188 187.443 115.991 186.697C115.793 185.951 115.969 185.202 116.517 184.45L117.76 185.146C117.451 185.643 117.371 186.123 117.521 186.583C117.67 187.043 118.043 187.44 118.639 187.774C119.374 188.186 120.105 188.319 120.832 188.173C121.566 188.019 122.228 187.648 122.816 187.059C123.405 186.471 123.671 185.914 123.616 185.389C123.568 184.856 123.181 184.386 122.455 183.98C121.961 183.703 121.43 183.559 120.862 183.547C120.31 183.532 119.785 183.644 119.285 183.882L118.085 183.209L122.701 178.592L128.775 181.994L127.87 182.899ZM124.428 189.498L125.209 188.717L135.609 185.962L137.131 186.814L131.745 192.201L133.141 192.983L132.247 193.877L130.851 193.095L129.029 194.917L127.772 194.213L129.594 192.391L124.428 189.498ZM134.855 187.217L126.788 189.425L130.544 191.528L134.855 187.217ZM149.008 194.596L137.749 199.8L136.464 199.08L147.677 194.009L142.288 190.991L143.171 190.109L149.789 193.815L149.008 194.596ZM154.901 199.679C155.533 198.727 155.314 197.951 154.244 197.352C153.416 196.888 152.536 196.801 151.606 197.092C150.684 197.376 149.635 198.113 148.46 199.302C149.066 199.03 149.725 198.922 150.437 198.98C151.166 199.035 151.838 199.235 152.452 199.579C153.411 200.116 153.933 200.784 154.018 201.585C154.112 202.391 153.733 203.221 152.881 204.073C152.368 204.586 151.782 204.976 151.123 205.242C150.474 205.514 149.777 205.63 149.033 205.59C148.298 205.555 147.577 205.34 146.87 204.943C145.911 204.406 145.335 203.813 145.142 203.164C144.95 202.515 145.052 201.824 145.449 201.093C145.846 200.363 146.493 199.548 147.391 198.65C150.159 195.882 152.735 195.165 155.118 196.499C156.03 197.01 156.547 197.611 156.668 198.303C156.79 198.995 156.592 199.672 156.074 200.336L154.901 199.679ZM151.316 200.301C150.916 200.077 150.471 199.934 149.981 199.872C149.499 199.802 149.011 199.84 148.516 199.987C148.038 200.131 147.606 200.395 147.221 200.78C146.648 201.353 146.385 201.936 146.433 202.527C146.488 203.111 146.897 203.617 147.66 204.044C148.312 204.409 148.991 204.536 149.697 204.426C150.419 204.313 151.06 203.977 151.618 203.419C152.207 202.83 152.481 202.266 152.44 201.726C152.407 201.178 152.033 200.703 151.316 200.301ZM157.996 201.589C158.755 200.931 159.629 200.573 160.617 200.514C161.605 200.456 162.573 200.692 163.523 201.224C164.156 201.578 164.606 201.978 164.873 202.422C165.158 202.863 165.258 203.308 165.174 203.755C165.099 204.207 164.862 204.633 164.462 205.033C163.994 205.501 163.423 205.811 162.748 205.963C162.083 206.12 161.436 206.099 160.808 205.899L160.751 205.956C161.235 206.416 161.477 206.922 161.476 207.474C161.475 208.027 161.188 208.59 160.615 209.163C160.185 209.593 159.675 209.914 159.086 210.126C158.505 210.329 157.874 210.394 157.194 210.319C156.514 210.244 155.834 210.016 155.154 209.636C154.168 209.083 153.565 208.422 153.347 207.653C153.137 206.876 153.379 206.082 154.074 205.271L155.303 205.959C154.915 206.448 154.774 206.945 154.878 207.451C154.982 207.957 155.36 208.392 156.012 208.757C156.663 209.122 157.292 209.262 157.899 209.178C158.523 209.092 159.053 208.83 159.491 208.393C160.057 207.827 160.231 207.289 160.015 206.779C159.798 206.27 159.22 205.752 158.28 205.225L157.959 205.045L158.819 204.185L159.154 204.373C160.018 204.845 160.778 205.094 161.434 205.121C162.098 205.139 162.664 204.915 163.131 204.447C163.531 204.047 163.689 203.635 163.604 203.211C163.529 202.793 163.194 202.417 162.598 202.083C162.021 201.76 161.435 201.62 160.84 201.663C160.245 201.707 159.711 201.914 159.238 202.285L157.996 201.589ZM161.639 210.337L162.419 209.556L172.82 206.801L174.342 207.653L168.955 213.04L170.352 213.822L169.458 214.716L168.061 213.934L166.239 215.756L164.983 215.052L166.805 213.23L161.639 210.337ZM172.066 208.056L163.999 210.264L167.755 212.367L172.066 208.056ZM173.3 218.421C175.252 218.313 176.808 218.202 177.968 218.087C179.136 217.965 180.216 217.763 181.208 217.483C182.217 217.201 182.981 216.799 183.502 216.279C183.992 215.788 184.228 215.32 184.209 214.874C184.207 214.426 183.88 214.019 183.229 213.654C182.596 213.3 181.94 213.186 181.262 213.312C180.601 213.436 179.989 213.758 179.425 214.278L178.196 213.59C179.078 212.766 180.047 212.291 181.103 212.164C182.159 212.037 183.157 212.237 184.097 212.764C185.056 213.301 185.6 213.941 185.728 214.683C185.866 215.431 185.558 216.183 184.803 216.937C184.177 217.563 183.334 218.044 182.272 218.379C181.228 218.712 180.186 218.941 179.147 219.065C178.115 219.182 176.845 219.283 175.337 219.368L180.14 222.058L179.28 222.918L172.564 219.156L173.3 218.421ZM192.521 220.747C193.153 219.795 192.934 219.019 191.864 218.42C191.035 217.956 190.156 217.869 189.226 218.16C188.303 218.444 187.255 219.181 186.079 220.37C186.686 220.098 187.345 219.99 188.057 220.048C188.786 220.103 189.458 220.303 190.072 220.647C191.031 221.184 191.553 221.853 191.638 222.653C191.732 223.459 191.353 224.289 190.501 225.141C189.988 225.654 189.402 226.044 188.743 226.31C188.094 226.582 187.397 226.698 186.653 226.658C185.918 226.623 185.197 226.408 184.49 226.011C183.531 225.475 182.955 224.881 182.762 224.232C182.569 223.583 182.671 222.892 183.068 222.162C183.465 221.431 184.113 220.616 185.01 219.719C187.779 216.95 190.355 216.233 192.738 217.567C193.65 218.078 194.167 218.68 194.288 219.371C194.41 220.063 194.211 220.741 193.693 221.404L192.521 220.747ZM188.936 221.369C188.535 221.145 188.09 221.002 187.601 220.94C187.119 220.87 186.63 220.908 186.136 221.055C185.657 221.199 185.226 221.463 184.841 221.848C184.268 222.421 184.005 223.004 184.052 223.595C184.107 224.179 184.517 224.685 185.28 225.112C185.931 225.477 186.61 225.604 187.316 225.494C188.039 225.381 188.68 225.045 189.238 224.487C189.826 223.898 190.1 223.334 190.06 222.794C190.027 222.246 189.652 221.771 188.936 221.369ZM191.036 226.8L191.817 226.019L202.217 223.265L203.739 224.117L198.353 229.503L199.749 230.285L198.855 231.179L197.459 230.397L195.637 232.219L194.381 231.515L196.202 229.693L191.036 226.8ZM201.463 224.519L193.396 226.727L197.152 228.831L201.463 224.519ZM211.894 229.814L200.634 235.018L199.35 234.298L210.563 229.227L205.174 226.209L206.056 225.326L212.675 229.033L211.894 229.814ZM213.823 235.89C215.12 234.592 216.392 233.727 217.637 233.295C218.89 232.855 220.168 233 221.472 233.73C222.765 234.454 223.307 235.328 223.097 236.352C222.894 237.368 222.143 238.525 220.846 239.823C219.526 241.143 218.239 242.023 216.986 242.463C215.733 242.903 214.46 242.76 213.166 242.036C211.863 241.306 211.316 240.429 211.527 239.405C211.737 238.382 212.503 237.21 213.823 235.89ZM219.589 239.119C220.246 238.463 220.744 237.877 221.085 237.362C221.443 236.844 221.594 236.352 221.538 235.885C221.491 235.424 221.156 235.018 220.532 234.669C219.899 234.314 219.276 234.183 218.662 234.274C218.057 234.371 217.468 234.618 216.896 235.016C216.341 235.411 215.736 235.937 215.079 236.593C214.4 237.272 213.882 237.87 213.524 238.388C213.176 238.911 213.025 239.403 213.072 239.864C213.128 240.331 213.472 240.742 214.105 241.096C214.729 241.446 215.343 241.572 215.948 241.475C216.562 241.384 217.15 241.137 217.713 240.734C218.285 240.336 218.91 239.798 219.589 239.119ZM219.087 244.063C221.039 243.956 222.595 243.844 223.755 243.729C224.924 243.607 226.003 243.405 226.995 243.125C228.004 242.843 228.768 242.441 229.289 241.921C229.779 241.43 230.015 240.962 229.996 240.516C229.994 240.068 229.668 239.661 229.016 239.296C228.383 238.942 227.728 238.828 227.049 238.954C226.388 239.078 225.776 239.4 225.212 239.92L223.984 239.232C224.866 238.408 225.835 237.933 226.891 237.806C227.947 237.68 228.945 237.88 229.885 238.406C230.843 238.943 231.387 239.583 231.516 240.326C231.653 241.074 231.345 241.825 230.591 242.579C229.965 243.205 229.121 243.686 228.059 244.021C227.015 244.354 225.973 244.583 224.934 244.707C223.903 244.824 222.633 244.925 221.125 245.01L225.928 247.7L225.068 248.56L218.352 244.799L219.087 244.063ZM232.54 243.335C233.299 242.678 234.173 242.32 235.161 242.261C236.149 242.202 237.117 242.439 238.067 242.971C238.7 243.325 239.15 243.724 239.418 244.168C239.702 244.61 239.802 245.054 239.718 245.502C239.643 245.954 239.406 246.38 239.006 246.78C238.538 247.248 237.967 247.557 237.292 247.709C236.627 247.866 235.98 247.845 235.352 247.646L235.295 247.703C235.779 248.162 236.021 248.668 236.02 249.221C236.019 249.774 235.732 250.337 235.159 250.91C234.729 251.34 234.219 251.661 233.63 251.872C233.049 252.076 232.418 252.141 231.738 252.066C231.058 251.991 230.378 251.763 229.698 251.383C228.712 250.83 228.109 250.169 227.891 249.4C227.681 248.623 227.923 247.829 228.618 247.017L229.847 247.706C229.459 248.195 229.318 248.692 229.422 249.198C229.526 249.703 229.904 250.138 230.556 250.503C231.207 250.868 231.836 251.009 232.443 250.925C233.067 250.839 233.597 250.577 234.035 250.139C234.601 249.573 234.775 249.036 234.559 248.526C234.342 248.017 233.764 247.498 232.824 246.972L232.503 246.792L233.363 245.932L233.698 246.12C234.562 246.592 235.322 246.841 235.978 246.867C236.642 246.886 237.208 246.661 237.675 246.194C238.075 245.794 238.233 245.382 238.149 244.958C238.073 244.539 237.738 244.163 237.142 243.83C236.565 243.507 235.979 243.367 235.384 243.41C234.789 243.453 234.255 243.66 233.782 244.031L232.54 243.335ZM248.259 250.179L237 255.383L235.715 254.664L246.929 249.593L241.539 246.575L242.422 245.692L249.04 249.398L248.259 250.179Z" fill="white"/>
<path d="M401.641 310.268L399.192 312.717L402.486 314.561L401.698 315.349L398.404 313.505L395.883 316.026L399.565 318.088L398.777 318.877L393.915 316.154L401.249 308.819L406.111 311.542L405.323 312.33L401.641 310.268ZM404.27 321.953L404.728 318.865L400.964 320.101L399.732 319.412L404.885 317.839L405.49 313.654L406.826 314.401L406.378 317.478L410.119 316.246L411.35 316.935L406.221 318.505L405.605 322.701L404.27 321.953ZM412.643 319.315C413.205 319.116 413.824 319.037 414.499 319.076C415.19 319.113 415.843 319.304 416.456 319.647C417.087 320.001 417.535 320.443 417.8 320.973C418.073 321.509 418.133 322.083 417.978 322.696C417.831 323.302 417.463 323.899 416.875 324.488C416.293 325.069 415.628 325.505 414.879 325.796C414.13 326.087 413.37 326.213 412.599 326.175C411.837 326.141 411.14 325.948 410.509 325.595C409.904 325.256 409.477 324.847 409.227 324.368C408.993 323.888 408.92 323.415 409.007 322.95L405.214 326.743L404.034 326.083L412.524 317.593L413.704 318.253L412.643 319.315ZM415.669 323.812C416.103 323.378 416.373 322.939 416.48 322.496C416.586 322.053 416.537 321.643 416.333 321.267C416.139 320.895 415.821 320.586 415.38 320.339C414.948 320.097 414.458 319.96 413.911 319.927C413.38 319.892 412.838 319.976 412.284 320.179C411.745 320.38 411.263 320.695 410.835 321.122C410.401 321.556 410.127 321.999 410.014 322.449C409.917 322.897 409.962 323.31 410.15 323.689C410.353 324.065 410.671 324.374 411.103 324.616C411.544 324.863 412.03 325.004 412.561 325.039C413.108 325.072 413.651 324.988 414.189 324.787C414.734 324.579 415.228 324.254 415.669 323.812Z" fill="white"/>
<path d="M377.079 332.543C379.031 332.435 380.587 332.324 381.747 332.209C382.916 332.086 383.995 331.885 384.987 331.605C385.996 331.322 386.76 330.921 387.281 330.4C387.771 329.91 388.007 329.442 387.988 328.996C387.986 328.548 387.66 328.141 387.008 327.776C386.375 327.422 385.72 327.308 385.041 327.434C384.38 327.558 383.768 327.88 383.204 328.4L381.976 327.712C382.858 326.888 383.827 326.412 384.883 326.286C385.939 326.159 386.937 326.359 387.877 326.886C388.835 327.423 389.379 328.062 389.508 328.805C389.645 329.553 389.337 330.304 388.583 331.059C387.957 331.685 387.113 332.166 386.051 332.501C385.007 332.834 383.965 333.063 382.926 333.187C381.895 333.303 380.625 333.404 379.117 333.489L383.92 336.179L383.06 337.039L376.344 333.278L377.079 332.543ZM385.953 335.959L386.733 335.178L397.134 332.423L398.656 333.275L393.269 338.662L394.666 339.443L393.772 340.337L392.375 339.555L390.553 341.377L389.297 340.674L391.119 338.852L385.953 335.959ZM396.38 333.678L388.313 335.886L392.068 337.989L396.38 333.678ZM408.835 334.986L392.426 345.427L391.17 344.723L407.565 334.275L408.835 334.986ZM400.532 345.677C402.483 345.569 404.04 345.458 405.2 345.343C406.368 345.221 407.448 345.019 408.44 344.739C409.448 344.457 410.213 344.055 410.734 343.534C411.224 343.044 411.46 342.576 411.441 342.13C411.439 341.682 411.112 341.275 410.461 340.91C409.828 340.556 409.172 340.442 408.494 340.568C407.833 340.692 407.22 341.014 406.657 341.534L405.428 340.846C406.31 340.022 407.279 339.546 408.335 339.42C409.391 339.293 410.389 339.493 411.329 340.02C412.288 340.557 412.832 341.197 412.96 341.939C413.098 342.687 412.79 343.439 412.035 344.193C411.409 344.819 410.565 345.3 409.504 345.635C408.46 345.968 407.418 346.197 406.379 346.321C405.347 346.438 404.077 346.539 402.569 346.624L407.372 349.313L406.512 350.173L399.796 346.412L400.532 345.677ZM419.752 348.003C420.385 347.051 420.166 346.275 419.096 345.675C418.267 345.212 417.388 345.125 416.458 345.416C415.535 345.7 414.486 346.436 413.311 347.626C413.918 347.354 414.577 347.246 415.289 347.304C416.018 347.359 416.69 347.559 417.304 347.903C418.263 348.44 418.785 349.108 418.87 349.909C418.964 350.715 418.585 351.544 417.733 352.397C417.22 352.91 416.634 353.3 415.975 353.566C415.326 353.838 414.629 353.954 413.885 353.914C413.15 353.879 412.429 353.664 411.722 353.267C410.763 352.73 410.187 352.137 409.994 351.488C409.801 350.839 409.903 350.148 410.3 349.417C410.697 348.686 411.345 347.872 412.242 346.974C415.011 344.206 417.587 343.489 419.97 344.823C420.882 345.334 421.399 345.935 421.52 346.627C421.642 347.319 421.443 347.996 420.925 348.66L419.752 348.003ZM416.167 348.625C415.767 348.401 415.322 348.258 414.833 348.196C414.351 348.126 413.862 348.164 413.367 348.311C412.889 348.455 412.458 348.719 412.073 349.104C411.5 349.677 411.237 350.26 411.284 350.851C411.339 351.435 411.748 351.941 412.512 352.368C413.163 352.733 413.842 352.86 414.548 352.75C415.271 352.637 415.912 352.301 416.47 351.743C417.058 351.154 417.332 350.59 417.292 350.049C417.259 349.501 416.884 349.027 416.167 348.625Z" fill="white"/>
</g>
<defs>
<filter id="filter0_d_6708_105" x="2.89771" y="-4.03369" width="612.42" height="461.914" filterUnits="userSpaceOnUse" color-interpolation-filters="sRGB">
<feFlood flood-opacity="0" result="BackgroundImageFix"/>
<feColorMatrix in="SourceAlpha" type="matrix" values="0 0 0 0 0 0 0 0 0 0 0 0 0 0 0 0 0 0 127 0" result="hardAlpha"/>
<feOffset dy="15"/>
<feGaussianBlur stdDeviation="30"/>
<feComposite in2="hardAlpha" operator="out"/>
<feColorMatrix type="matrix" values="0 0 0 0 0 0 0 0 0 0 0 0 0 0 0 0 0 0 0.25 0"/>
<feBlend mode="normal" in2="BackgroundImageFix" result="effect1_dropShadow_6708_105"/>
<feBlend mode="normal" in="SourceGraphic" in2="effect1_dropShadow_6708_105" result="shape"/>
</filter>
<linearGradient id="paint0_linear_6708_105" x1="0" y1="106.305" x2="392.073" y2="106.305" gradientUnits="userSpaceOnUse">
<stop stop-color="#52C234"/>
<stop offset="1" stop-color="#061700"/>
</linearGradient>
<radialGradient id="paint1_radial_6708_105" cx="0" cy="0" r="1" gradientUnits="userSpaceOnUse" gradientTransform="translate(51.22 131.497) rotate(-11.6688) scale(337.426 182.978)">
<stop stop-color="#1D976C"/>
<stop offset="0.604167" stop-color="#51CE8F"/>
<stop offset="0.892823" stop-color="#10AB53"/>
<stop offset="1" stop-color="#18D375"/>
</radialGradient>
</defs>
</svg>
