<svg width="372" height="379" viewBox="0 0 372 379" fill="none" xmlns="http://www.w3.org/2000/svg">
<path d="M57 150.831C66.0742 147.806 85.8921 146.475 92.5708 165.349C99.2495 184.224 110.598 186.281 115.438 184.95" stroke="#00FFEA" stroke-width="3" stroke-linecap="round"/>
<path d="M260.626 187.052C269.7 184.027 289.518 182.696 296.197 201.571C302.875 220.445 314.224 222.502 319.064 221.171" stroke="#00FFEA" stroke-width="3" stroke-linecap="round"/>
<g filter="url(#filter0_d_6781_79)">
<path d="M178.573 122.971C181.775 119.01 187.814 119.01 191.016 122.971L197.746 131.296C199.735 133.757 202.988 134.814 206.045 133.992L216.382 131.213C221.301 129.89 226.187 133.44 226.449 138.527L227 149.217C227.163 152.378 229.174 155.145 232.129 156.277L242.126 160.104C246.883 161.926 248.749 167.669 245.971 171.938L240.133 180.911C238.407 183.564 238.407 186.985 240.133 189.637L245.971 198.61C248.749 202.879 246.883 208.623 242.126 210.444L232.129 214.272C229.174 215.403 227.163 218.171 227 221.331L226.449 232.022C226.187 237.109 221.301 240.658 216.382 239.336L206.044 236.556C202.988 235.735 199.735 236.792 197.746 239.253L191.016 247.578C187.814 251.539 181.775 251.539 178.573 247.578L171.843 239.253C169.854 236.792 166.601 235.735 163.545 236.556L153.207 239.336C148.288 240.658 143.402 237.109 143.14 232.022L142.589 221.331C142.426 218.171 140.416 215.403 137.46 214.272L127.463 210.444C122.706 208.623 120.84 202.879 123.618 198.61L129.456 189.637C131.182 186.985 131.182 183.564 129.456 180.911L123.618 171.938C120.84 167.669 122.706 161.926 127.463 160.104L137.46 156.277C140.416 155.145 142.426 152.378 142.589 149.217L143.14 138.527C143.402 133.44 148.288 129.89 153.207 131.213L163.545 133.992C166.601 134.814 169.854 133.757 171.843 131.296L178.573 122.971Z" fill="url(#paint0_linear_6781_79)"/>
</g>
<path d="M202.249 173.274L178.249 197.274L167.34 186.365" stroke="white" stroke-width="5" stroke-linecap="round" stroke-linejoin="round"/>
<path d="M264.499 116.236C264.814 114.326 267.559 114.326 267.874 116.236L268.847 122.143L274.754 123.116C276.664 123.43 276.664 126.176 274.754 126.491L268.847 127.464L267.874 133.371C267.559 135.281 264.814 135.281 264.499 133.371L263.526 127.464L257.619 126.491C255.709 126.176 255.709 123.43 257.619 123.116L263.526 122.143L264.499 116.236Z" fill="white"/>
<path d="M104.335 227.895C104.634 226.081 107.242 226.081 107.541 227.895L108.465 233.507L114.077 234.432C115.892 234.73 115.892 237.339 114.077 237.638L108.465 238.562L107.541 244.174C107.242 245.988 104.634 245.988 104.335 244.174L103.411 238.562L97.7987 237.638C95.9844 237.339 95.9844 234.73 97.7987 234.432L103.411 233.507L104.335 227.895Z" fill="white"/>
<path d="M99.2221 121.003C99.4423 119.666 101.364 119.666 101.585 121.003L102.266 125.138L106.401 125.819C107.738 126.039 107.738 127.961 106.401 128.181L102.266 128.862L101.585 132.997C101.364 134.334 99.4423 134.334 99.2221 132.997L98.541 128.862L94.4059 128.181C93.0691 127.961 93.0691 126.039 94.4059 125.819L98.541 125.138L99.2221 121.003Z" fill="white"/>
<path d="M274.114 247.537C274.334 246.2 276.256 246.2 276.476 247.537L277.157 251.672L281.292 252.353C282.629 252.574 282.629 254.496 281.292 254.716L277.157 255.397L276.476 259.532C276.256 260.869 274.334 260.869 274.114 259.532L273.433 255.397L269.298 254.716C267.961 254.496 267.961 252.574 269.298 252.353L273.433 251.672L274.114 247.537Z" fill="white"/>
<circle cx="268.621" cy="164.451" r="4" fill="#FFE609"/>
<circle cx="167.34" cy="84.4009" r="4" fill="#FFE609"/>
<circle cx="223.111" cy="291.874" r="4" fill="#FFE609"/>
<circle cx="145.936" cy="267.503" r="2.5" fill="#FFE609"/>
<defs>
<filter id="filter0_d_6781_79" x="-1.67969" y="0" width="372.949" height="378.549" filterUnits="userSpaceOnUse" color-interpolation-filters="sRGB">
<feFlood flood-opacity="0" result="BackgroundImageFix"/>
<feColorMatrix in="SourceAlpha" type="matrix" values="0 0 0 0 0 0 0 0 0 0 0 0 0 0 0 0 0 0 127 0" result="hardAlpha"/>
<feOffset dy="4"/>
<feGaussianBlur stdDeviation="62"/>
<feComposite in2="hardAlpha" operator="out"/>
<feColorMatrix type="matrix" values="0 0 0 0 0.219608 0 0 0 0 0.937255 0 0 0 0 0.490196 0 0 0 0.5 0"/>
<feBlend mode="normal" in2="BackgroundImageFix" result="effect1_dropShadow_6781_79"/>
<feBlend mode="normal" in="SourceGraphic" in2="effect1_dropShadow_6781_79" result="shape"/>
</filter>
<linearGradient id="paint0_linear_6781_79" x1="122.32" y1="185.274" x2="247.269" y2="185.274" gradientUnits="userSpaceOnUse">
<stop stop-color="#11998E"/>
<stop offset="1" stop-color="#38EF7D"/>
</linearGradient>
</defs>
</svg>
